<mxfile host="app.diagrams.net" modified="2023-08-24T07:01:56.701Z" agent="Mozilla/5.0 (Macintosh; Intel Mac OS X 10_15_7) AppleWebKit/537.36 (KHTML, like Gecko) Chrome/115.0.0.0 Safari/537.36" version="21.3.4" etag="z7iX1UFC5hpVs4i4ZvS1" type="github">
  <diagram name="第 1 页" id="rUE5JbtWa0edOJIpivCg">
    <mxGraphModel>
      <root>
        <mxCell id="0" />
        <mxCell id="1" parent="0" />
      </root>
    </mxGraphModel>
  </diagram>
</mxfile>
